<?xml version="1.0" standalone="no"?>
<!DOCTYPE svg PUBLIC "-//W3C//DTD SVG 20010904//EN"
 "http://www.w3.org/TR/2001/REC-SVG-20010904/DTD/svg10.dtd">
<svg version="1.0" xmlns="http://www.w3.org/2000/svg"
 width="256.000000pt" height="256.000000pt" viewBox="0 0 256.000000 256.000000"
 preserveAspectRatio="xMidYMid meet">

<g transform="translate(0.000000,256.000000) scale(0.100000,-0.100000)"
fill="#000000" stroke="none">
<path d="M1115 2550 c-16 -4 -52 -11 -78 -15 -27 -3 -47 -9 -44 -12 5 -5 219
26 226 33 8 7 -73 2 -104 -6z"/>
<path d="M1378 2543 c7 -3 16 -2 19 1 4 3 -2 6 -13 5 -11 0 -14 -3 -6 -6z"/>
<path d="M1416 2533 c-4 -5 12 -13 36 -19 35 -8 18 -10 -92 -6 -280 8 -534
-63 -746 -210 -76 -52 -111 -84 -101 -94 3 -3 16 0 29 6 12 7 -20 -31 -72 -84
-93 -94 -121 -116 -100 -76 17 32 -5 23 -42 -18 -45 -50 -95 -123 -135 -197
l-32 -60 3 47 c2 26 15 66 29 92 14 26 22 44 17 41 -20 -12 -85 -144 -116
-237 -59 -174 -74 -269 -70 -468 2 -118 8 -199 20 -249 12 -53 13 -76 5 -81
-7 -5 -6 -9 4 -13 8 -3 25 -35 36 -70 49 -146 155 -319 268 -436 34 -36 60
-68 58 -72 -6 -9 19 -30 38 -33 8 -1 34 -18 58 -38 94 -76 240 -157 359 -198
133 -45 370 -77 370 -50 0 6 -15 11 -32 11 -18 1 24 6 93 10 272 17 530 101
681 220 40 32 51 55 21 45 -10 -3 5 15 32 40 80 73 126 107 119 90 -12 -33 21
-15 69 36 65 69 140 177 183 261 19 37 36 67 39 67 2 0 -2 -19 -10 -41 -8 -23
-15 -46 -15 -52 0 -18 29 27 30 46 0 9 5 17 12 17 6 0 8 3 5 6 -4 4 0 19 8 33
7 14 21 51 31 81 9 30 21 60 25 66 5 6 7 13 4 15 -2 3 2 41 10 84 17 95 19
327 4 445 -5 46 -25 129 -43 184 -81 246 -193 411 -399 584 -139 117 -224 167
-362 217 -44 16 -85 33 -92 38 -7 5 -17 6 -22 2 -6 -3 -24 1 -40 10 -31 16
-161 22 -175 8z m-212 -479 c21 -8 22 -82 1 -90 -8 -4 -15 -14 -15 -24 0 -10
-9 -21 -19 -25 -20 -6 -31 -33 -31 -77 0 -19 -4 -26 -14 -22 -8 3 -22 -8 -34
-28 -34 -55 -88 -101 -111 -95 -16 4 -27 -5 -48 -39 -15 -24 -31 -44 -34 -44
-3 0 -2 23 2 52 11 70 69 187 118 241 23 24 41 48 41 54 0 17 67 75 74 64 12
-19 34 -12 40 14 7 27 7 28 30 19z m648 -61 l3 -38 110 2 c90 1 113 -2 129
-15 17 -16 11 -17 -110 -22 l-129 -5 -3 -116 c-2 -96 0 -118 13 -129 13 -11
21 -9 47 10 19 14 51 25 80 28 44 4 50 2 82 -30 19 -19 38 -47 42 -62 9 -36
-14 -94 -47 -118 -35 -27 -103 -26 -140 1 -33 25 -64 27 -73 5 -3 -9 -6 -65
-6 -125 l0 -109 240 0 c233 0 240 -1 240 -20 0 -19 -7 -20 -241 -20 l-240 0 3
-47 3 -48 120 -5 120 -5 0 -35 0 -35 -111 -26 c-61 -14 -116 -29 -122 -33 -6
-4 11 -55 49 -142 46 -107 57 -140 49 -155 -11 -20 -46 -33 -76 -27 -16 2 -20
-4 -22 -39 l-3 -43 113 0 112 0 -21 -21 c-19 -19 -31 -22 -112 -20 l-91 2 0
-78 c0 -67 -3 -80 -20 -90 -18 -12 -19 -9 -22 75 l-3 87 -116 3 c-141 3 -155
-5 -115 -65 39 -57 36 -115 -8 -159 -29 -29 -41 -34 -81 -34 -40 0 -52 5 -81
34 -44 44 -47 102 -8 159 40 59 26 67 -117 67 l-119 0 0 -155 c0 -131 -2 -155
-15 -155 -13 0 -15 24 -15 155 l0 155 -124 0 c-105 0 -127 3 -147 18 -29 24
-29 71 -1 107 35 44 29 65 -17 65 -28 0 -45 7 -64 26 -30 30 -43 26 -52 -17
-5 -23 -1 -39 19 -69 31 -47 33 -90 7 -114 -15 -14 -35 -16 -101 -14 -56 2
-85 7 -88 16 -3 9 17 12 77 12 99 0 113 13 75 75 -13 22 -24 53 -24 68 0 33
26 87 42 87 6 0 8 11 4 30 -7 39 -2 38 24 -5 33 -53 48 -65 84 -65 25 0 339
77 579 142 29 8 37 15 33 27 -3 9 -16 46 -28 84 l-23 67 -195 0 c-109 0 -202
-5 -210 -10 -8 -5 -10 -10 -5 -10 6 0 3 -5 -5 -10 -22 -14 -151 -12 -181 4
-14 7 -39 17 -55 22 -22 7 5 10 106 14 l135 5 33 60 c18 33 30 49 26 35 l-6
-25 33 30 c70 62 71 64 75 128 5 74 29 102 76 92 22 -5 28 -3 28 10 0 32 17 5
53 -82 45 -111 141 -355 177 -453 15 -41 39 -101 53 -132 24 -54 28 -58 59
-58 18 0 42 7 52 15 27 20 142 20 202 -1 25 -8 50 -12 54 -7 5 4 -20 73 -55
153 -42 97 -59 147 -51 151 6 4 66 19 134 34 67 16 122 32 122 36 0 5 -68 10
-151 11 l-151 3 -43 105 c-23 58 -61 148 -85 200 -43 96 -110 264 -110 275 0
3 5 3 10 0 6 -3 10 1 10 10 0 9 4 13 10 10 5 -3 19 9 30 27 11 18 20 26 20 18
0 -16 -27 -60 -42 -71 -5 -3 13 -52 40 -110 27 -57 66 -148 87 -202 40 -102
52 -113 106 -105 23 3 24 4 20 126 -2 100 0 127 13 147 20 31 72 34 107 6 37
-29 65 -34 97 -17 51 26 59 91 16 125 -35 27 -60 26 -109 -4 -49 -30 -65 -31
-99 -4 -26 20 -26 22 -26 150 l0 129 -42 1 -43 0 45 18 c40 17 45 22 48 55 4
47 20 46 24 -1z m-477 -83 c-8 -13 -35 -13 -55 0 -11 7 -5 10 23 10 23 0 36
-4 32 -10z m-1224 -97 c-12 -20 -14 -14 -5 12 4 9 9 14 11 11 3 -2 0 -13 -6
-23z m1009 -406 c-12 -26 -23 -47 -26 -47 -2 0 3 17 12 38 9 20 18 43 21 50 3
7 7 11 9 9 2 -2 -5 -25 -16 -50z m1054 -567 c17 -6 24 -14 20 -25 -5 -11 -15
-13 -44 -9 -33 5 -43 2 -64 -19 -31 -31 -33 -61 -7 -103 18 -29 18 -33 3 -47
-14 -15 -18 -13 -39 18 -42 62 -24 147 39 178 38 19 57 21 92 7z"/>
<path d="M1750 1225 c0 -2 10 -25 22 -50 30 -61 48 -59 48 5 l0 50 -35 0 c-19
0 -35 -2 -35 -5z"/>
<path d="M1322 855 c-73 -19 -137 -37 -142 -40 -6 -4 -10 -58 -10 -121 l0
-114 126 0 c69 0 134 -4 144 -10 10 -5 21 -24 25 -40 5 -24 1 -38 -19 -65 -49
-64 -23 -139 48 -139 71 0 102 73 58 134 -22 29 -28 75 -14 96 17 26 56 34
167 34 l116 0 -3 40 -3 40 -121 3 c-82 1 -126 6 -137 15 -8 7 -32 56 -52 108
-20 51 -40 94 -43 93 -4 0 -67 -16 -140 -34z"/>
<path d="M1070 788 c-143 -40 -140 -38 -140 -65 0 -15 -12 -46 -26 -70 -39
-66 -28 -73 117 -73 l119 0 0 110 c0 122 2 119 -70 98z"/>
<path d="M805 2470 c-3 -5 -2 -10 4 -10 5 0 13 5 16 10 3 6 2 10 -4 10 -5 0
-13 -4 -16 -10z"/>
<path d="M683 2413 c-24 -8 -43 -19 -43 -24 0 -13 10 -11 60 16 51 27 45 30
-17 8z"/>
<path d="M550 2329 c-10 -18 -10 -19 7 -10 45 26 49 31 26 31 -12 0 -27 -9
-33 -21z"/>
<path d="M465 2271 c-10 -17 12 -21 25 -6 10 12 10 15 -3 15 -9 0 -18 -4 -22
-9z"/>
<path d="M345 2145 c-16 -14 -25 -25 -19 -25 6 0 21 11 34 25 30 32 24 31 -15
0z"/>
<path d="M272 2055 c-6 -14 -10 -25 -8 -25 2 0 11 11 20 25 9 14 13 25 8 25
-5 0 -14 -11 -20 -25z"/>
</g>
</svg>
